<svg id="Layer_1" data-name="Layer 1" xmlns="http://www.w3.org/2000/svg" viewBox="0 0 554.61 106.75"><defs><style>.cls-1,.cls-2{fill:#fff;}.cls-2{font-size:70.1px;font-family:UniSansHeavyCAPS, Uni Sans;}</style></defs><title>logo-white</title><path class="cls-1" d="M-308,107.3l44.38,40.87a81.18,81.18,0,0,0,18.18-14.44c-.56-.34-1-.65-1.47-.89q-30.89-16.23-61.8-32.44a3.21,3.21,0,0,1-1.87-2.49,123.3,123.3,0,0,1-1.64-33.09,1.91,1.91,0,0,1,1.47-1.89,132.85,132.85,0,0,1,60.23-7.58A165.68,165.68,0,0,1-216,62.84a2.32,2.32,0,0,1,1.94,2.4,118.41,118.41,0,0,1-1.44,30.09c-.52,2.81.14,2.34-3,2.77q-12.38,1.71-24.77,3.39a12,12,0,0,0-1.31.36l18.91,20-.17.27-48.82-27.32c1.83-.38,3.2-.69,4.58-1q20.34-3.94,40.69-7.85c1.26-.24,1.83-.65,1.71-2-.2-2.39-.24-4.8-.28-7.21a1.66,1.66,0,0,0-1.31-1.81c-22.36-7.36-44.73-8.33-67.16-.32-1.42.51-2.07,1.13-2.05,2.7,0,4.08-.09,8.16-.2,12.25A2.52,2.52,0,0,0-297,92.13q30.7,16.05,61.36,32.19l7.45,3.93c-.35.57-.63,1.08-1,1.57-8.71,13.12-20.27,23.18-33.63,31.29a2.13,2.13,0,0,1-1.8.11c-21.44-12.12-36.31-29.6-43.48-53.36C-308.07,107.78-308,107.66-308,107.3Z" transform="translate(312.61 -54.62)"/><text class="cls-2" transform="translate(107.6 74.41)">ShopRanker</text></svg>